<svg width="60" height="60" viewBox="0 0 60 60" fill="none" xmlns="http://www.w3.org/2000/svg">
<g clip-path="url(#clip0_841_77)">
<path d="M54.378 7.5H5.62158C2.51501 7.5 -0.00341797 10.0183 -0.00341797 13.125V46.875C-0.00341797 49.9816 2.51501 52.5 5.62158 52.5H54.378C57.4846 52.5 60.003 49.9816 60.003 46.875V13.125C60.003 10.0183 57.4846 7.5 54.378 7.5ZM58.128 46.0414L40.3916 28.305L58.128 17.0029V46.0414ZM5.62158 9.375H54.378C56.4458 9.375 58.128 11.0572 58.128 13.125V14.781L32.3133 31.2313C30.9163 32.1213 29.1319 32.0938 27.7668 31.1654L1.87158 13.5652V13.125C1.87158 11.0572 3.55393 9.375 5.62158 9.375ZM1.87158 15.8299L19.8582 28.0548L1.87158 46.0414V15.8299ZM54.378 50.625H5.62158C4.07714 50.625 2.74918 49.6855 2.17524 48.3488L21.4126 29.1113L26.714 32.7145C27.732 33.4067 28.9095 33.7537 30.0886 33.7537C31.2092 33.7537 32.3316 33.4405 33.3195 32.8116L38.7968 29.3212L57.8244 48.3488C57.2505 49.6855 55.9225 50.625 54.378 50.625Z" fill="white"/>
</g>
<defs>
<clipPath id="clip0_841_77">
<rect width="60" height="60" fill="white"/>
</clipPath>
</defs>
</svg>
