<svg width="30" height="30" viewBox="0 0 30 30" fill="none" xmlns="http://www.w3.org/2000/svg">
<path d="M29.3997 1.41782C29.1619 1.21285 28.8725 1.07674 28.5627 1.02424C28.2529 0.971749 27.9346 1.00487 27.6423 1.12002L1.09492 11.5247C0.747881 11.6607 0.45432 11.9052 0.258164 12.2215C0.0620083 12.5379 -0.0261946 12.9091 0.00675422 13.2796C0.0397031 13.6501 0.192032 14 0.440946 14.2769C0.68986 14.5539 1.02198 14.743 1.38759 14.8159L8.59333 16.2537V25.127C8.58973 25.4684 8.68952 25.8029 8.87964 26.0867C9.06976 26.3706 9.34136 26.5905 9.65888 26.7178C9.87159 26.8067 10.0998 26.8528 10.3304 26.8534C10.5558 26.8527 10.7787 26.8073 10.9864 26.72C11.194 26.6326 11.3822 26.505 11.54 26.3445L15.6534 22.2409L21.7226 27.5692C22.0354 27.8463 22.439 27.9996 22.8573 28C23.0391 27.9998 23.2198 27.9712 23.3928 27.9152C23.678 27.825 23.9346 27.6617 24.1369 27.4416C24.3391 27.2216 24.48 26.9524 24.5454 26.6611L29.9559 3.10749C30.0266 2.80202 30.0121 2.4831 29.914 2.18527C29.816 1.88743 29.6381 1.62203 29.3997 1.41782V1.41782ZM1.153 13.1781C1.13869 13.0541 1.16672 12.9289 1.23255 12.8228C1.29837 12.7166 1.39816 12.6357 1.51578 12.5931L25.8506 3.0556L9.03525 15.1712L1.61326 13.6903C1.48997 13.669 1.37748 13.6069 1.29396 13.5139C1.21044 13.421 1.16078 13.3027 1.153 13.1781V13.1781ZM10.7263 25.5328C10.6458 25.6131 10.5433 25.6678 10.4317 25.6899C10.3201 25.7121 10.2044 25.7007 10.0993 25.6573C9.99412 25.6138 9.90426 25.5403 9.84104 25.4459C9.77782 25.3515 9.74408 25.2405 9.74408 25.127V17.0529L14.7878 21.481L10.7263 25.5328ZM28.8343 2.85103L23.4238 26.4046C23.4015 26.5016 23.3544 26.591 23.287 26.6643C23.2196 26.7376 23.1343 26.7922 23.0395 26.8227C22.9446 26.8532 22.8435 26.8586 22.7459 26.8384C22.6483 26.8182 22.5576 26.773 22.4828 26.7073L10.0901 15.8274L28.7413 2.38906C28.7903 2.45427 28.8242 2.5296 28.8402 2.60953C28.8563 2.68947 28.8543 2.77199 28.8343 2.85103V2.85103Z" fill="black"/>
</svg>
