<svg width="130" height="130" viewBox="0 0 130 130" fill="none" xmlns="http://www.w3.org/2000/svg">
<circle cx="65" cy="65" r="65" fill="white"/>
<path d="M85.3691 50.7593L76.6768 52.5938L82.6306 59.1872L81.6893 68.0209L89.7998 64.3958L97.9104 68.0209L96.9691 59.1872L102.923 52.5938L94.2306 50.7593L89.7998 43.0593L85.3691 50.7593Z" fill="black"/>
<path d="M111.703 86.5774L106.009 85.3754L103.106 80.3303L100.203 85.3754L94.5088 86.5774L98.4092 90.8967L97.7927 96.6837L103.106 94.3088L108.42 96.6837L107.803 90.8965L111.703 86.5774Z" fill="black"/>
<path d="M62.9123 65C62.9123 45.4029 74.1883 28.4422 90.6046 20.244C83.8887 16.8901 76.314 15 68.2969 15C40.6826 15 18.2969 37.3857 18.2969 65C18.2969 92.6143 40.6826 115 68.2969 115C76.314 115 83.8887 113.11 90.6046 109.756C74.1883 101.558 62.9123 84.5971 62.9123 65Z" fill="black"/>
</svg>
