<svg width="130" height="130" viewBox="0 0 130 130" fill="none" xmlns="http://www.w3.org/2000/svg">
<circle cx="65" cy="65" r="65" fill="white"/>
<path d="M67.8636 91.9576H63.1367V106H67.8636V91.9576Z" fill="#FFDE55"/>
<path d="M67.8636 23H63.1367V37.0424H67.8636V23Z" fill="#FFDE55"/>
<path d="M34.4838 92.1736L37.8262 95.516L47.7554 85.5867L44.4131 82.2444L34.4838 92.1736Z" fill="#FCEBA2"/>
<path d="M83.2446 43.4133L86.5869 46.7556L96.5162 36.8264L93.1738 33.484L83.2446 43.4133Z" fill="#FCEBA2"/>
<path d="M38.0424 62.1366H24V66.8635H38.0424V62.1366Z" fill="#FFDE55"/>
<path d="M107 62.1366H92.958V66.8635H107V62.1366Z" fill="#FFDE55"/>
<path d="M37.8267 33.4841L34.4844 36.8264L44.4136 46.7557L47.756 43.4133L37.8267 33.4841Z" fill="#FCEBA2"/>
<path d="M86.5865 82.2443L83.2441 85.5867L93.1734 95.5159L96.5158 92.1736L86.5865 82.2443Z" fill="#FCEBA2"/>
<path d="M65.4991 87.0442C77.9498 87.0442 88.0431 76.9509 88.0431 64.5002C88.0431 52.0495 77.9498 41.9562 65.4991 41.9562C53.0484 41.9562 42.9551 52.0495 42.9551 64.5002C42.9551 76.9509 53.0484 87.0442 65.4991 87.0442Z" fill="#FCEBA2"/>
<path d="M65.4992 81.7972C75.0521 81.7972 82.7962 74.053 82.7962 64.5002C82.7962 54.9473 75.0521 47.2031 65.4992 47.2031C55.9463 47.2031 48.2021 54.9473 48.2021 64.5002C48.2021 74.053 55.9463 81.7972 65.4992 81.7972Z" fill="#FFDE55"/>
</svg>
