<svg width="30" height="30" viewBox="0 0 30 30" fill="none" xmlns="http://www.w3.org/2000/svg">
<path fill-rule="evenodd" clip-rule="evenodd" d="M23.5715 9.94578C23.5715 4.92364 19.7101 0.714355 14.6501 0.714355C9.59007 0.714355 5.71436 4.9265 5.71436 9.95007C5.71436 11.6072 5.94578 12.8572 6.73078 14.2858H6.71578L14.3551 29.0151C14.6422 29.4086 14.9436 28.9922 14.9436 28.9922C14.6858 29.3786 22.5829 14.2858 22.5829 14.2858H22.5765C23.3536 12.8572 23.5715 11.6044 23.5715 9.94578ZM10.5365 9.66293C10.5365 7.29364 12.3786 5.37436 14.6501 5.37436C16.9208 5.37436 18.7644 7.29364 18.7644 9.66293C18.7644 12.0322 16.9208 13.9522 14.6501 13.9522C12.3786 13.9522 10.5365 12.0329 10.5365 9.66293Z" fill="#047E89"/>
</svg>
