<svg width="30" height="30" viewBox="0 0 30 30" fill="none" xmlns="http://www.w3.org/2000/svg">
<path fill-rule="evenodd" clip-rule="evenodd" d="M23.5715 9.94566C23.5715 4.92352 19.7101 0.714233 14.6501 0.714233C9.59007 0.714233 5.71436 4.92638 5.71436 9.94995C5.71436 11.6071 5.94578 12.8571 6.73078 14.2857H6.71578L14.3551 29.0149C14.6422 29.4085 14.9436 28.9921 14.9436 28.9921C14.6858 29.3785 22.5829 14.2857 22.5829 14.2857H22.5765C23.3536 12.8571 23.5715 11.6042 23.5715 9.94566ZM10.5365 9.6628C10.5365 7.29352 12.3786 5.37423 14.6501 5.37423C16.9208 5.37423 18.7644 7.29352 18.7644 9.6628C18.7644 12.0321 16.9208 13.9521 14.6501 13.9521C12.3786 13.9521 10.5365 12.0328 10.5365 9.6628Z" fill="white"/>
</svg>
