<svg width="1351" height="561" viewBox="0 0 1351 561" fill="none" xmlns="http://www.w3.org/2000/svg">
<path d="M599.52 2H81.549C48.412 2 21.5491 28.8629 21.5491 62L21.5489 499C21.5488 532.137 48.4117 559 81.5488 559H1288.55C1321.69 559 1348.55 532.137 1348.55 499V62C1348.55 28.8629 1321.69 2 1288.55 2H599.52Z" stroke="#047E89" stroke-width="3"/>
<path d="M0 311.387C0 305.436 4.82382 300.612 10.7743 300.612V300.612C16.7248 300.612 21.5486 305.436 21.5486 311.387V384.226C21.5486 390.176 16.7248 395 10.7743 395V395C4.82382 395 0 390.176 0 384.226V311.387Z" fill="#047E89"/>
<rect x="1304" y="404" width="247" height="45.0583" transform="rotate(-90 1304 404)" fill="#111A6D"/>
<path d="M1312.25 295.406H1315.38V305.984H1335V309.891H1312.25V295.406ZM1320.98 307.172V301.453C1320.98 299.724 1321.28 298.245 1321.86 297.016C1322.43 295.786 1323.24 294.849 1324.28 294.203C1325.32 293.557 1326.54 293.234 1327.92 293.234C1328.96 293.234 1329.92 293.417 1330.78 293.781C1331.65 294.146 1332.4 294.682 1333.03 295.391C1333.66 296.099 1334.14 296.964 1334.48 297.984C1334.83 298.995 1335 300.151 1335 301.453V309.891H1312.25V305.953H1331.89V301.453C1331.89 300.464 1331.71 299.651 1331.34 299.016C1330.97 298.38 1330.48 297.911 1329.88 297.609C1329.27 297.297 1328.61 297.141 1327.89 297.141C1327.19 297.141 1326.56 297.297 1325.98 297.609C1325.41 297.911 1324.95 298.38 1324.61 299.016C1324.27 299.651 1324.09 300.464 1324.09 301.453V307.172H1320.98ZM1315.28 280.844L1335 287.641V291.75L1312.25 283.188V280.562L1315.28 280.844ZM1335 275.156L1315.28 281.969L1312.25 282.266V279.625L1335 271.031V275.156ZM1326.56 275.484H1329.67V287.859H1326.56V275.484ZM1326.52 259.844V265.766H1323.41V259.844C1323.41 258.812 1323.24 257.979 1322.91 257.344C1322.57 256.708 1322.11 256.245 1321.53 255.953C1320.94 255.651 1320.26 255.5 1319.5 255.5C1318.78 255.5 1318.11 255.651 1317.48 255.953C1316.85 256.245 1316.34 256.708 1315.95 257.344C1315.57 257.979 1315.38 258.812 1315.38 259.844V264.562H1335V268.484H1312.25V259.844C1312.25 258.083 1312.56 256.589 1313.19 255.359C1313.8 254.12 1314.66 253.177 1315.75 252.531C1316.83 251.885 1318.07 251.562 1319.47 251.562C1320.94 251.562 1322.2 251.885 1323.25 252.531C1324.3 253.177 1325.11 254.12 1325.67 255.359C1326.23 256.589 1326.52 258.083 1326.52 259.844Z" fill="white"/>
<rect x="1261" y="187" width="30" height="30" rx="15" transform="rotate(-90 1261 187)" fill="#047E89"/>
<rect x="1261" y="353" width="30" height="30" rx="15" transform="rotate(-90 1261 353)" fill="#047E89"/>
<rect x="1261" y="404" width="30" height="30" rx="15" transform="rotate(-90 1261 404)" fill="#047E89"/>
</svg>
