<svg width="15" height="15" viewBox="0 0 15 15" fill="none" xmlns="http://www.w3.org/2000/svg">
<path fill-rule="evenodd" clip-rule="evenodd" d="M0.252734 0.274642C0.414769 0.113049 0.634415 0.0222836 0.863425 0.0222836C1.09243 0.0222836 1.31208 0.113049 1.47412 0.274642L7.48884 6.28043L13.5036 0.274642C13.5827 0.189863 13.6781 0.121863 13.7841 0.0747008C13.8901 0.0275381 14.0045 0.00217855 14.1206 0.000134293C14.2366 -0.00190996 14.3519 0.019403 14.4595 0.0628023C14.5671 0.106202 14.6648 0.170798 14.7469 0.252738C14.8289 0.334677 14.8936 0.432281 14.9371 0.539728C14.9806 0.647174 15.0019 0.762261 14.9999 0.878123C14.9978 0.993986 14.9724 1.10825 14.9252 1.2141C14.878 1.31995 14.8099 1.41521 14.725 1.49421L8.71022 7.5L14.725 13.5058C14.8099 13.5848 14.878 13.6801 14.9252 13.7859C14.9724 13.8918 14.9978 14.006 14.9999 14.1219C15.0019 14.2377 14.9806 14.3528 14.9371 14.4603C14.8936 14.5677 14.8289 14.6653 14.7469 14.7473C14.6648 14.8292 14.5671 14.8938 14.4595 14.9372C14.3519 14.9806 14.2366 15.0019 14.1206 14.9999C14.0045 14.9978 13.8901 14.9725 13.7841 14.9253C13.6781 14.8781 13.5827 14.8101 13.5036 14.7254L7.48884 8.71957L1.47412 14.7254C1.31029 14.8778 1.09362 14.9608 0.869736 14.9568C0.645853 14.9529 0.432244 14.8623 0.27391 14.7042C0.115576 14.5461 0.0248808 14.3328 0.0209307 14.1093C0.0169805 13.8857 0.100084 13.6694 0.252734 13.5058L6.26746 7.5L0.252734 1.49421C0.0909 1.33241 0 1.11309 0 0.884425C0 0.655756 0.0909 0.436436 0.252734 0.274642Z" fill="#DC143C"/>
</svg>
