<svg width="198" height="45" viewBox="0 0 198 45" fill="none" xmlns="http://www.w3.org/2000/svg">
<path d="M29.488 42.136C26.416 42.904 22.896 43.288 18.928 43.288C12.272 43.288 7.376 41.688 4.24 38.488C3.088 37.336 2.16 35.848 1.456 34.024C0.784 32.168 0.448 29.912 0.448 27.256C0.448 24.6 0.96 22.152 1.984 19.912C3.04 17.64 4.464 15.848 6.256 14.536C9.808 11.912 14.032 10.6 18.928 10.6L28.816 11.032L29.104 19.768H27.568L25.936 13.48C24.208 12.744 22.16 12.376 19.792 12.376C15.92 12.376 12.704 13.656 10.144 16.216C7.616 18.744 6.352 22.44 6.352 27.304C6.352 32.168 7.584 35.768 10.048 38.104C12.544 40.408 15.728 41.56 19.6 41.56C21.488 41.56 23.216 41.368 24.784 40.984V30.76L20.8 30.328V29.176H32.368V30.328L29.488 30.76V42.136ZM68.4674 26.872C68.4674 31.672 67.0114 35.656 64.0994 38.824C61.1874 41.96 57.2834 43.528 52.3874 43.528C47.4914 43.528 43.5714 41.96 40.6274 38.824C37.7154 35.656 36.2594 31.672 36.2594 26.872C36.2594 22.072 37.7154 18.104 40.6274 14.968C43.5714 11.8 47.4914 10.216 52.3874 10.216C57.2834 10.216 61.1874 11.8 64.0994 14.968C67.0114 18.104 68.4674 22.072 68.4674 26.872ZM52.4354 42.04C59.2194 42.04 62.6114 36.984 62.6114 26.872C62.6114 22.008 61.8274 18.264 60.2594 15.64C58.7234 13.016 56.0994 11.704 52.3874 11.704C48.6754 11.704 46.0354 13.016 44.4674 15.64C42.8994 18.232 42.1154 21.976 42.1154 26.872C42.1154 36.984 45.5554 42.04 52.4354 42.04ZM69.6106 0.247997H86.8906V1.592L81.7706 2.168L93.4826 35L102.699 11.704L99.1146 2.168L94.1866 1.592V0.247997H111.467V1.592L106.347 2.168L118.059 35L130.219 3.448L124.587 1.784V0.247997H137.963V1.784L133.099 3.512L117.547 43.384H114.667L104.043 15.352L92.9706 43.384H90.0906L74.5386 2.168L69.6106 1.592V0.247997ZM138.95 43V41.848L143.126 41.416V12.52L138.95 11.992V10.936H161.942L161.99 17.752H160.742L159.11 12.664L148.07 12.52V25.432H157.766L159.254 21.88H160.214V30.808H159.206L157.766 27.16H148.07V41.464L160.55 41.32L162.806 35.848H164.054L163.478 43H138.95ZM176.567 26.104H178.967C184.695 26.104 187.559 23.704 187.559 18.904C187.559 16.536 186.999 14.824 185.879 13.768C184.759 12.68 182.967 12.136 180.503 12.136C179.543 12.136 178.231 12.2 176.567 12.328V26.104ZM176.471 10.84L181.943 10.696C189.207 10.696 192.839 13.432 192.839 18.904C192.839 21.272 192.023 23.224 190.391 24.76C188.791 26.264 186.711 27.016 184.151 27.016C183.927 27.016 183.527 26.984 182.951 26.92V27.016C186.375 27.496 188.727 28.616 190.007 30.376C191.319 32.104 191.975 34.76 191.975 38.344C191.975 40.584 192.391 41.88 193.223 42.232C193.607 42.488 194.135 42.616 194.807 42.616C195.511 42.616 196.407 42.408 197.495 41.992V43.192C195.799 43.8 194.247 44.104 192.839 44.104C189.703 44.104 187.767 42.76 187.031 40.072C186.839 39.368 186.727 38.376 186.695 37.096C186.695 35.816 186.647 34.68 186.551 33.688C186.455 32.696 186.231 31.704 185.879 30.712C185.079 28.568 182.871 27.496 179.255 27.496H176.567V41.608L180.263 41.944V43H168.023V41.992L171.623 41.608V12.424L167.447 11.944V10.696C169.495 10.792 171.687 10.84 174.023 10.84H176.471Z" fill="white"/>
</svg>
