<svg width="24" height="18" viewBox="0 0 24 18" fill="none" xmlns="http://www.w3.org/2000/svg">
<path d="M21.7512 0H2.24866C1.00603 0 -0.00134277 1.00733 -0.00134277 2.25V15.75C-0.00134277 16.9926 1.00603 18 2.24866 18H21.7512C22.9939 18 24.0012 16.9926 24.0012 15.75V2.25C24.0012 1.00733 22.9939 0 21.7512 0ZM23.2512 15.4166L16.1567 8.322L23.2512 3.80115V15.4166ZM2.24866 0.75H21.7512C22.5783 0.75 23.2512 1.42286 23.2512 2.25V2.9124L12.9254 9.49253C12.3665 9.84851 11.6528 9.83752 11.1068 9.46616L0.748657 2.42606V2.25C0.748657 1.42286 1.42159 0.75 2.24866 0.75ZM0.748657 3.33195L7.94329 8.22191L0.748657 15.4166V3.33195ZM21.7512 17.25H2.24866C1.63088 17.25 1.09969 16.8742 0.87012 16.3395L8.56508 8.64454L10.6856 10.0858C11.0928 10.3627 11.5638 10.5015 12.0355 10.5015C12.4837 10.5015 12.9327 10.3762 13.3278 10.1246L15.5187 8.7285L23.1298 16.3395C22.9002 16.8742 22.369 17.25 21.7512 17.25Z" fill="white"/>
</svg>
