<svg width="24" height="18" viewBox="0 0 24 18" fill="none" xmlns="http://www.w3.org/2000/svg">
<path d="M21.7511 0H2.24853C1.00591 0 -0.00146484 1.00733 -0.00146484 2.25V15.75C-0.00146484 16.9926 1.00591 18 2.24853 18H21.7511C22.9938 18 24.0011 16.9926 24.0011 15.75V2.25C24.0011 1.00733 22.9938 0 21.7511 0ZM23.2511 15.4166L16.1565 8.322L23.2511 3.80115V15.4166ZM2.24853 0.75H21.7511C22.5782 0.75 23.2511 1.42286 23.2511 2.25V2.9124L12.9252 9.49253C12.3664 9.84851 11.6527 9.83752 11.1066 9.46616L0.748535 2.42606V2.25C0.748535 1.42286 1.42147 0.75 2.24853 0.75ZM0.748535 3.33195L7.94317 8.22191L0.748535 15.4166V3.33195ZM21.7511 17.25H2.24853C1.63076 17.25 1.09957 16.8742 0.869998 16.3395L8.56496 8.64454L10.6855 10.0858C11.0927 10.3627 11.5637 10.5015 12.0354 10.5015C12.4836 10.5015 12.9325 10.3762 13.3277 10.1246L15.5186 8.7285L23.1297 16.3395C22.9001 16.8742 22.3689 17.25 21.7511 17.25Z" fill="black"/>
</svg>
