<svg width="60" height="46" viewBox="0 0 60 46" fill="none" xmlns="http://www.w3.org/2000/svg">
<path d="M54.378 0.5H5.62158C2.51501 0.5 -0.00341797 3.01831 -0.00341797 6.125V39.875C-0.00341797 42.9816 2.51501 45.5 5.62158 45.5H54.378C57.4846 45.5 60.003 42.9816 60.003 39.875V6.125C60.003 3.01831 57.4846 0.5 54.378 0.5ZM58.128 39.0414L40.3916 21.305L58.128 10.0029V39.0414ZM5.62158 2.375H54.378C56.4458 2.375 58.128 4.05716 58.128 6.125V7.781L32.3133 24.2313C30.9163 25.1213 29.1319 25.0938 27.7668 24.1654L1.87158 6.56516V6.125C1.87158 4.05716 3.55393 2.375 5.62158 2.375ZM1.87158 8.82988L19.8582 21.0548L1.87158 39.0414V8.82988ZM54.378 43.625H5.62158C4.07714 43.625 2.74918 42.6855 2.17524 41.3488L21.4126 22.1113L26.714 25.7145C27.732 26.4067 28.9095 26.7537 30.0886 26.7537C31.2092 26.7537 32.3316 26.4405 33.3195 25.8116L38.7968 22.3212L57.8244 41.3488C57.2505 42.6855 55.9225 43.625 54.378 43.625Z" fill="black"/>
</svg>
