<svg width="24" height="24" viewBox="0 0 24 24" fill="none" xmlns="http://www.w3.org/2000/svg">
<path d="M23.984 19.7535C23.9077 19.1768 23.5748 18.6795 23.0707 18.3893L17.1498 14.9803C16.4246 14.5628 15.5047 14.6843 14.9128 15.2762L13.7465 16.4424C13.4362 16.7528 12.9452 16.7803 12.6047 16.5062C11.6853 15.7664 10.7801 14.9523 9.91417 14.0863C9.04827 13.2204 8.2341 12.3152 7.49426 11.3958C7.22021 11.0552 7.24763 10.5643 7.55807 10.2539L8.72425 9.08766C9.3161 8.49586 9.43781 7.576 9.02018 6.85067L5.61116 0.929785C5.32088 0.42564 4.82368 0.0927563 4.24697 0.0164554C3.6702 -0.060001 3.10349 0.132358 2.69213 0.54372L0.934875 2.30102C-0.291589 3.52754 -0.311287 5.77106 0.879412 8.6184C2.02434 11.3562 4.16097 14.3701 6.89562 17.1048C9.63038 19.8396 12.6443 21.9762 15.3821 23.1211C16.7837 23.7072 18.0388 24.0001 19.0985 24C20.1916 24 21.0767 23.6883 21.6995 23.0656L23.4568 21.3083C23.8681 20.8969 24.0603 20.3302 23.984 19.7535ZM16.7619 15.6541L22.6828 19.0631C22.9756 19.2317 23.1689 19.5205 23.2132 19.8555C23.2504 20.1366 23.1774 20.4134 23.0118 20.6364L15.143 16.1455L15.4626 15.826C15.8063 15.4823 16.3407 15.4116 16.7619 15.6541ZM4.14496 0.787291C4.47996 0.83161 4.76874 1.02495 4.9373 1.31777L8.34632 7.23866C8.58891 7.65992 8.51821 8.19423 8.17449 8.5379L7.88095 8.83144L3.36541 0.98867C3.54999 0.851981 3.77076 0.777754 4.00091 0.777754C4.04865 0.777754 4.0968 0.780916 4.14496 0.787291ZM21.1496 22.5158C20.1752 23.4902 18.1824 23.4493 15.6821 22.4037C13.0354 21.2969 10.1103 19.2198 7.44549 16.555C4.78066 13.8902 2.70353 10.9651 1.59675 8.31843C0.55109 5.81807 0.510296 3.82523 1.48469 2.85079L2.78921 1.54621L7.31155 9.40084L7.00826 9.70413C6.41657 10.2959 6.36504 11.2326 6.88847 11.8833C7.64572 12.8244 8.47876 13.7506 9.36431 14.6361C10.25 15.5217 11.1761 16.3547 12.1172 17.112C12.7677 17.6354 13.7045 17.584 14.2963 16.9922L14.573 16.7155L22.4528 21.2126L21.1496 22.5158Z" fill="black"/>
</svg>
