<svg width="24" height="24" viewBox="0 0 24 24" fill="none" xmlns="http://www.w3.org/2000/svg">
<path d="M23.9838 19.7535C23.9075 19.1768 23.5745 18.6795 23.0704 18.3893L17.1496 14.9803C16.4244 14.5628 15.5044 14.6843 14.9125 15.2762L13.7463 16.4424C13.436 16.7528 12.945 16.7803 12.6045 16.5062C11.6851 15.7664 10.7798 14.9523 9.91393 14.0863C9.04803 13.2204 8.23386 12.3152 7.49402 11.3958C7.21997 11.0552 7.24739 10.5643 7.55783 10.2539L8.72401 9.08766C9.31586 8.49586 9.43757 7.576 9.01993 6.85067L5.61091 0.929785C5.32064 0.42564 4.82344 0.0927563 4.24672 0.0164554C3.66996 -0.060001 3.10325 0.132358 2.69188 0.54372L0.934631 2.30102C-0.291833 3.52754 -0.311531 5.77106 0.879167 8.6184C2.0241 11.3562 4.16073 14.3701 6.89538 17.1048C9.63013 19.8396 12.644 21.9762 15.3819 23.1211C16.7834 23.7072 18.0386 24.0001 19.0983 24C20.1914 24 21.0765 23.6883 21.6993 23.0656L23.4565 21.3083C23.8678 20.8969 24.06 20.3302 23.9838 19.7535ZM16.7616 15.6541L22.6825 19.0631C22.9753 19.2317 23.1687 19.5205 23.2129 19.8555C23.2502 20.1366 23.1771 20.4134 23.0116 20.6364L15.1428 16.1455L15.4623 15.826C15.806 15.4823 16.3405 15.4116 16.7616 15.6541ZM4.14471 0.787291C4.47972 0.83161 4.76849 1.02495 4.93706 1.31777L8.34608 7.23866C8.58867 7.65992 8.51796 8.19423 8.17425 8.5379L7.88071 8.83144L3.36517 0.98867C3.54975 0.851981 3.77052 0.777754 4.00066 0.777754C4.0484 0.777754 4.09656 0.780916 4.14471 0.787291ZM21.1494 22.5158C20.175 23.4902 18.1822 23.4493 15.6819 22.4037C13.0352 21.2969 10.1101 19.2198 7.44524 16.555C4.78041 13.8902 2.70329 10.9651 1.59651 8.31843C0.550846 5.81807 0.510052 3.82523 1.48444 2.85079L2.78897 1.54621L7.3113 9.40084L7.00802 9.70413C6.41632 10.2959 6.3648 11.2326 6.88823 11.8833C7.64548 12.8244 8.47852 13.7506 9.36406 14.6361C10.2497 15.5217 11.1759 16.3547 12.117 17.112C12.7675 17.6354 13.7042 17.584 14.2961 16.9922L14.5728 16.7155L22.4525 21.2126L21.1494 22.5158Z" fill="white"/>
</svg>
