<svg width="266" height="38" viewBox="0 0 266 38" fill="none" xmlns="http://www.w3.org/2000/svg">
<path d="M19 0L23.2658 13.1287H37.0701L25.9022 21.2426L30.1679 34.3713L19 26.2574L7.83208 34.3713L12.0978 21.2426L0.929926 13.1287H14.7342L19 0Z" fill="#DDD639"/>
<path d="M76 0L80.2658 13.1287H94.0701L82.9022 21.2426L87.1679 34.3713L76 26.2574L64.8321 34.3713L69.0978 21.2426L57.9299 13.1287H71.7342L76 0Z" fill="#DDD639"/>
<path d="M133 0L137.266 13.1287H151.07L139.902 21.2426L144.168 34.3713L133 26.2574L121.832 34.3713L126.098 21.2426L114.93 13.1287H128.734L133 0Z" fill="#DDD639"/>
<path d="M190 0L194.266 13.1287H208.07L196.902 21.2426L201.168 34.3713L190 26.2574L178.832 34.3713L183.098 21.2426L171.93 13.1287H185.734L190 0Z" fill="#DDD639"/>
<path d="M247 0L251.266 13.1287H265.07L253.902 21.2426L258.168 34.3713L247 26.2574L235.832 34.3713L240.098 21.2426L228.93 13.1287H242.734L247 0Z" fill="#C4C4C4"/>
</svg>
