<svg width="50" height="45" viewBox="0 0 50 45" fill="none" xmlns="http://www.w3.org/2000/svg">
<path d="M48.5887 1.1492C48.2013 0.814437 47.7296 0.592133 47.2248 0.506395C46.72 0.420656 46.2014 0.474754 45.7252 0.662823L2.46958 17.6562C1.90412 17.8783 1.4258 18.2775 1.10619 18.7942C0.786582 19.3109 0.642866 19.9171 0.696552 20.5222C0.750238 21.1274 0.998438 21.6989 1.40401 22.1512C1.80959 22.6035 2.35073 22.9123 2.94645 23.0314L14.6873 25.3798V39.8719C14.6814 40.4294 14.844 40.9758 15.1538 41.4394C15.4636 41.903 15.9061 42.2622 16.4235 42.4701C16.7701 42.6153 17.1419 42.6905 17.5176 42.6915C17.8848 42.6903 18.2481 42.6163 18.5864 42.4736C18.9248 42.3309 19.2314 42.1225 19.4885 41.8604L26.1908 35.1582L36.0798 43.8606C36.5894 44.3132 37.2471 44.5635 37.9286 44.5642C38.2249 44.5639 38.5193 44.5171 38.8011 44.4257C39.2659 44.2783 39.684 44.0116 40.0135 43.6522C40.3431 43.2928 40.5726 42.8533 40.6792 42.3775L49.495 3.90882C49.6101 3.40993 49.5864 2.88906 49.4267 2.40262C49.267 1.91618 48.9772 1.48272 48.5887 1.1492ZM2.56422 20.3565C2.5409 20.154 2.58656 19.9495 2.69382 19.7762C2.80109 19.6028 2.96368 19.4707 3.15532 19.4011L42.8058 3.82408L15.4074 23.6117L3.31415 21.1931C3.11327 21.1583 2.92997 21.0568 2.79389 20.905C2.65781 20.7532 2.57689 20.56 2.56422 20.3565ZM18.1626 40.5347C18.0315 40.6658 17.8645 40.7551 17.6826 40.7913C17.5008 40.8275 17.3123 40.8089 17.141 40.738C16.9697 40.667 16.8233 40.5469 16.7203 40.3927C16.6173 40.2385 16.5623 40.0573 16.5623 39.8719V26.685L24.7804 33.9171L18.1626 40.5347ZM47.6673 3.48997L38.8516 41.9586C38.8153 42.1169 38.7385 42.263 38.6288 42.3827C38.519 42.5024 38.38 42.5916 38.2255 42.6414C38.0709 42.6912 37.9061 42.7001 37.7471 42.667C37.5881 42.634 37.4404 42.5603 37.3184 42.453L17.126 24.6835L47.5158 2.73547C47.5958 2.84196 47.6509 2.96499 47.6771 3.09555C47.7033 3.2261 47.7 3.36087 47.6673 3.48997Z" fill="black"/>
</svg>
