<svg width="60" height="60" viewBox="0 0 60 60" fill="none" xmlns="http://www.w3.org/2000/svg">
<path d="M53.5887 8.1492C53.2013 7.81444 52.7296 7.59213 52.2248 7.50639C51.72 7.42066 51.2014 7.47475 50.7252 7.66282L7.46958 24.6562C6.90412 24.8783 6.4258 25.2775 6.10619 25.7942C5.78658 26.3109 5.64287 26.9171 5.69655 27.5222C5.75024 28.1274 5.99844 28.6989 6.40401 29.1512C6.80959 29.6035 7.35073 29.9123 7.94645 30.0314L19.6873 32.3798V46.8719C19.6814 47.4294 19.844 47.9758 20.1538 48.4394C20.4636 48.903 20.9061 49.2622 21.4235 49.4701C21.7701 49.6153 22.1419 49.6905 22.5176 49.6915C22.8848 49.6903 23.2481 49.6163 23.5864 49.4736C23.9248 49.3309 24.2314 49.1225 24.4885 48.8604L31.1908 42.1582L41.0798 50.8606C41.5894 51.3132 42.2471 51.5635 42.9286 51.5642C43.2249 51.5639 43.5193 51.5171 43.8011 51.4257C44.2659 51.2783 44.684 51.0116 45.0135 50.6522C45.3431 50.2928 45.5726 49.8533 45.6792 49.3775L54.495 10.9088C54.6101 10.4099 54.5864 9.88906 54.4267 9.40262C54.267 8.91618 53.9772 8.48272 53.5887 8.1492ZM7.56422 27.3565C7.5409 27.154 7.58656 26.9495 7.69382 26.7762C7.80109 26.6028 7.96368 26.4707 8.15532 26.4011L47.8058 10.8241L20.4074 30.6117L8.31415 28.1931C8.11327 28.1583 7.92997 28.0568 7.79389 27.905C7.65781 27.7532 7.57689 27.56 7.56422 27.3565ZM23.1626 47.5347C23.0315 47.6658 22.8645 47.7551 22.6826 47.7913C22.5008 47.8275 22.3123 47.8089 22.141 47.738C21.9697 47.667 21.8233 47.5469 21.7203 47.3927C21.6173 47.2385 21.5623 47.0573 21.5623 46.8719V33.685L29.7804 40.9171L23.1626 47.5347ZM52.6673 10.49L43.8516 48.9586C43.8153 49.1169 43.7385 49.263 43.6288 49.3827C43.519 49.5024 43.38 49.5916 43.2255 49.6414C43.0709 49.6912 42.9061 49.7001 42.7471 49.667C42.5881 49.634 42.4404 49.5603 42.3184 49.453L22.126 31.6835L52.5158 9.73547C52.5958 9.84196 52.6509 9.96499 52.6771 10.0955C52.7033 10.2261 52.7 10.3609 52.6673 10.49Z" fill="white"/>
</svg>
