<svg width="30" height="27" viewBox="0 0 30 27" fill="none" xmlns="http://www.w3.org/2000/svg">
<path d="M29.3997 0.417821C29.1619 0.212853 28.8725 0.0767412 28.5627 0.0242449C28.2529 -0.0282513 27.9346 0.00487201 27.6423 0.120023L1.09492 10.5247C0.747881 10.6607 0.45432 10.9052 0.258164 11.2215C0.0620083 11.5379 -0.0261946 11.9091 0.00675422 12.2796C0.0397031 12.6501 0.192032 13 0.440946 13.2769C0.68986 13.5539 1.02198 13.743 1.38759 13.8159L8.59333 15.2537V24.127C8.58973 24.4684 8.68952 24.8029 8.87964 25.0867C9.06976 25.3706 9.34136 25.5905 9.65888 25.7178C9.87159 25.8067 10.0998 25.8528 10.3304 25.8534C10.5558 25.8527 10.7787 25.8073 10.9864 25.72C11.194 25.6326 11.3822 25.505 11.54 25.3445L15.6534 21.2409L21.7226 26.5692C22.0354 26.8463 22.439 26.9995 22.8573 27C23.0391 26.9998 23.2198 26.9712 23.3928 26.9152C23.678 26.825 23.9346 26.6617 24.1369 26.4416C24.3391 26.2216 24.48 25.9524 24.5454 25.6611L29.9559 2.10749C30.0266 1.80202 30.0121 1.4831 29.914 1.18527C29.816 0.887429 29.6381 0.622032 29.3997 0.417821ZM1.153 12.1781C1.13869 12.0541 1.16672 11.9289 1.23255 11.8228C1.29838 11.7166 1.39816 11.6357 1.51578 11.5931L25.8506 2.0556L9.03525 14.1712L1.61326 12.6903C1.48997 12.669 1.37748 12.6069 1.29396 12.5139C1.21044 12.421 1.16078 12.3027 1.153 12.1781ZM10.7263 24.5328C10.6458 24.6131 10.5433 24.6678 10.4317 24.6899C10.3201 24.7121 10.2044 24.7007 10.0993 24.6573C9.99412 24.6138 9.90426 24.5403 9.84104 24.4459C9.77782 24.3515 9.74408 24.2405 9.74408 24.127V16.0529L14.7878 20.481L10.7263 24.5328ZM28.8343 1.85103L23.4238 25.4046C23.4015 25.5016 23.3544 25.591 23.287 25.6643C23.2196 25.7376 23.1343 25.7922 23.0395 25.8227C22.9446 25.8532 22.8435 25.8586 22.7459 25.8384C22.6483 25.8182 22.5576 25.773 22.4828 25.7073L10.0901 14.8274L28.7413 1.38906C28.7903 1.45427 28.8242 1.5296 28.8402 1.60953C28.8563 1.68947 28.8543 1.77199 28.8343 1.85103Z" fill="white"/>
</svg>
