<svg width="30" height="30" viewBox="0 0 30 30" fill="none" xmlns="http://www.w3.org/2000/svg">
<path d="M15 0C6.729 0 0 6.729 0 15C0 23.271 6.729 30 15 30C23.271 30 30 23.271 30 15C30 6.729 23.271 0 15 0ZM15 27.2727C8.23273 27.2727 2.72727 21.7672 2.72727 15C2.72727 8.23282 8.23273 2.72727 15 2.72727C21.7673 2.72727 27.2727 8.23282 27.2727 15C27.2727 21.7672 21.7672 27.2727 15 27.2727Z" fill="#A9A8A8"/>
<path d="M20.6247 9.69624L12.9107 17.4101L9.37529 13.8746C8.84283 13.3421 7.97938 13.3421 7.44683 13.8745C6.91429 14.4071 6.91429 15.2704 7.44683 15.803L11.9465 20.3028C12.2022 20.5585 12.549 20.7022 12.9107 20.7022C12.9107 20.7022 12.9107 20.7022 12.9107 20.7022C13.2724 20.7022 13.6192 20.5585 13.8749 20.3029L22.5532 11.6248C23.0857 11.0922 23.0857 10.2289 22.5532 9.69633C22.0207 9.16378 21.1573 9.16369 20.6247 9.69624Z" fill="#A9A8A8"/>
</svg>
